<?xml version="1.0" encoding="UTF-8"?><svg id="Ebene_1" xmlns="http://www.w3.org/2000/svg" viewBox="0 0 1041.25225 480.80903"><defs><style>.cls-1{fill:#ffffff;}.cls-2{fill:#ffffff;}</style></defs><path class="cls-1" d="M145.12373,122.5v109.45001c-23.59427-14-51.55979-24.10999-82.132-28.98999v-80.46002h82.132Z"/><path class="cls-1" d="M428.12202,233.5v102.58519c-10.07774-.40083-24.4312-.55115-41.60534.76147-17.52228,1.34271-36.71376,2.81563-54.55738,8.42689-62.51071,19.63926-97.37673,86.58315-105.71384,102.58519-5.3915,10.36069-9.19405,19.39879-11.62202,25.64125h-.62485c-2.42792-6.24247-6.23052-15.28056-11.62197-25.64125-8.33716-16.00204-43.20318-82.94594-105.71384-102.58519-17.84367-5.61126-37.03515-7.08418-54.55743-8.42689-17.17414-1.31262-31.52755-1.1623-41.60534-.76147v-102.58519h26.91273c103.2145,0,186.89831,93.92786,186.89831,209.79964,0-115.87178,83.68381-209.79964,186.89831-209.79964h26.91268Z"/><path class="cls-1" d="M255.82338,64.5v191c-19.69985,18.35004-33.65729,40.26001-39.83865,64.23004-6.43223-24.95001-21.2945-47.68005-42.29334-66.48004V64.5h82.132Z"/><path class="cls-1" d="M366.52303.5v202.76001c-30.67407,5.20001-58.66058,15.66998-82.132,30.07001V.5h82.132Z"/><path class="cls-2" d="M474.75612,352.7104h5.12549v46.4375h-5.12549v-46.4375Z"/><path class="cls-2" d="M490.4236,364.75434h4.17041l.42627,4.96094h.16797c2.84277-3.22559,5.91113-5.81055,10.00684-5.81055,6.28516,0,9.1084,4.67676,9.1084,13.4502v21.79297h-5.04834v-21.04102c0-6.40625-1.67969-9.14844-5.62842-9.14844-3.0498,0-5.16309,1.7959-8.15479,5.28223v24.90723h-5.04834v-34.39355Z"/><path class="cls-2" d="M520.68385,395.22309l2.49219-3.83301c2.59082,2.40527,5.22266,4.07422,8.80566,4.07422,3.91602,0,5.86133-2.40723,5.86133-5.34277,0-3.53906-3.52051-5.10352-6.82227-6.51855-4.17969-1.76074-8.89648-4.13281-8.89648-9.93457,0-5.50293,3.82422-9.76367,10.29004-9.76367,3.71387,0,6.96289,1.75391,9.27539,3.86523l-2.41504,3.72949c-2.05371-1.75098-4.16309-3.06152-6.80273-3.06152-3.75781,0-5.49316,2.30957-5.49316,4.93262,0,3.27051,3.24414,4.51465,6.62207,5.9668,4.30371,1.87012,9.09668,3.8877,9.09668,10.43457,0,5.57812-3.84277,10.22461-10.88379,10.22461-4.2373,0-8.32617-2.07031-11.12988-4.77344Z"/><path class="cls-2" d="M549.36256,388.51411v-19.01855h-4.43848v-4.40625l4.66406-.33496.60742-9.64551h4.21484v9.64551h8.08301v4.74121h-8.08301v19.11914c0,4.20508,1.17578,6.6416,4.61328,6.6416,1.05957,0,2.42969-.46191,3.39844-.92383l.97559,4.39062c-1.67383.65527-3.67285,1.27344-5.53516,1.27344-6.34961,0-8.5-4.63867-8.5-11.48242Z"/><path class="cls-2" d="M568.29616,353.92426c0-2.28516,1.52441-3.75879,3.4873-3.75879s3.48633,1.47363,3.48633,3.75879c0,2.19629-1.52344,3.75977-3.48633,3.75977s-3.4873-1.56348-3.4873-3.75977ZM569.21999,364.75434h5.04785v34.39355h-5.04785v-34.39355Z"/><path class="cls-2" d="M585.20046,388.51411v-19.01855h-4.43848v-4.40625l4.66406-.33496.60742-9.64551h4.21484v9.64551h8.08301v4.74121h-8.08301v19.11914c0,4.20508,1.17578,6.6416,4.61328,6.6416,1.05957,0,2.42969-.46191,3.39844-.92383l.97559,4.39062c-1.67383.65527-3.67285,1.27344-5.53516,1.27344-6.34961,0-8.5-4.63867-8.5-11.48242Z"/><path class="cls-2" d="M604.65846,386.54633v-21.79199h5.04785v21.04102c0,6.40625,1.68066,9.14844,5.62891,9.14844,3.0498,0,5.16309-1.74414,7.98633-5.79688v-24.39258h5.04883v34.39355h-4.1709l-.42578-5.38574h-.16797c-2.76465,3.75488-5.74316,6.23438-9.83887,6.23438-6.28516,0-9.1084-4.67578-9.1084-13.4502Z"/><path class="cls-2" d="M639.32741,388.51411v-19.01855h-4.43848v-4.40625l4.66406-.33496.60742-9.64551h4.21484v9.64551h8.08301v4.74121h-8.08301v19.11914c0,4.20508,1.17578,6.6416,4.61328,6.6416,1.05957,0,2.42969-.46191,3.39844-.92383l.97559,4.39062c-1.67383.65527-3.67285,1.27344-5.53516,1.27344-6.34961,0-8.5-4.63867-8.5-11.48242Z"/><path class="cls-2" d="M668.24049,365.0893l4.27637-.33496h11.14062v4.74121h-15.41699v-4.40625ZM672.29128,359.32173c0-6.99023,2.75781-11.43066,8.73828-11.43066,1.81445,0,3.60352.52832,4.9541,1.18359l-1.06543,4.44336c-1.1377-.60352-2.31934-.88574-3.37891-.88574-2.81738,0-4.2002,2.26855-4.2002,6.71191v39.80371h-5.04785v-39.82617Z"/><path class="cls-2" d="M688.97682,386.54633v-21.79199h5.04785v21.04102c0,6.40625,1.68066,9.14844,5.62891,9.14844,3.0498,0,5.16309-1.74414,7.98633-5.79688v-24.39258h5.04883v34.39355h-4.1709l-.42578-5.38574h-.16797c-2.76465,3.75488-5.74316,6.23438-9.83887,6.23438-6.28516,0-9.1084-4.67578-9.1084-13.4502ZM692.09694,354.08051c0-1.97656,1.28906-3.51367,3.04883-3.51367,1.75879,0,3.04785,1.53711,3.04785,3.51367s-1.28906,3.51465-3.04785,3.51465c-1.75977,0-3.04883-1.53809-3.04883-3.51465ZM703.91823,354.08051c0-1.97656,1.28809-3.51367,3.04785-3.51367s3.04785,1.53711,3.04785,3.51367-1.28809,3.51465-3.04785,3.51465-3.04785-1.53809-3.04785-3.51465Z"/><path class="cls-2" d="M722.761,364.75434h4.1709l.42578,6.26367h.16797c2.07617-4.36426,5.12598-7.11328,8.48145-7.11328,1.32129,0,2.24805.19434,3.18457.70801l-.94238,5.10547c-1.02734-.37207-1.69922-.56641-2.89355-.56641-2.51953,0-5.53027,2.09375-7.54688,7.91113v22.08496h-5.04785v-34.39355Z"/><path class="cls-2" d="M756.80006,352.7104h23.21582v5.00098h-18.08984v14.55078h15.25977v5.00195h-15.25977v16.88184h18.70312v5.00195h-23.8291v-46.4375Z"/><path class="cls-2" d="M788.66921,364.75434h4.1709l.42578,4.98633h.16797c2.60938-3.25098,5.73047-5.83594,9.2832-5.83594,4.56055,0,7.00586,2.51855,8.23633,6.55469,3.09766-3.86523,6.20898-6.55469,9.83887-6.55469,6.12988,0,9.07617,4.67676,9.07617,13.4502v21.79297h-5.04785v-21.04102c0-6.40625-1.75781-9.14844-5.55078-9.14844-2.31348,0-4.71777,1.74316-7.47656,5.28223v24.90723h-5.04883v-21.04102c0-6.40625-1.75684-9.14844-5.55078-9.14844-2.23535,0-4.7168,1.74316-7.47656,5.28223v24.90723h-5.04785v-34.39355Z"/><path class="cls-2" d="M839.54323,364.75434h4.1709l.42578,3.96973h.16797c2.69727-2.58398,6.05371-4.81934,9.50977-4.81934,7.70703,0,11.82812,6.89746,11.82812,17.52539,0,11.72266-6.10449,18.56641-12.91992,18.56641-2.73242,0-5.53027-1.45215-8.26953-3.98438l.13477,6.00293v11.64258h-5.04785v-48.90332ZM860.42995,381.48188c0-7.59082-2.24805-12.67969-7.86426-12.67969-2.52637,0-5.07227,1.60254-7.97461,4.69434v18.02637c2.70215,2.61523,5.29297,3.57715,7.26367,3.57715,4.9375,0,8.5752-5.12695,8.5752-13.61816Z"/><path class="cls-2" d="M872.67897,353.92426c0-2.28516,1.52441-3.75879,3.4873-3.75879s3.48633,1.47363,3.48633,3.75879c0,2.19629-1.52344,3.75977-3.48633,3.75977s-3.4873-1.56348-3.4873-3.75977ZM873.6028,364.75434h5.04785v34.39355h-5.04785v-34.39355Z"/><path class="cls-2" d="M888.6985,364.75434h4.1709l.42578,6.26367h.16797c2.07617-4.36426,5.12598-7.11328,8.48145-7.11328,1.32129,0,2.24805.19434,3.18457.70801l-.94238,5.10547c-1.02734-.37207-1.69922-.56641-2.89355-.56641-2.51953,0-5.53027,2.09375-7.54688,7.91113v22.08496h-5.04785v-34.39355Z"/><path class="cls-2" d="M909.06862,353.92426c0-2.28516,1.52441-3.75879,3.4873-3.75879s3.48633,1.47363,3.48633,3.75879c0,2.19629-1.52344,3.75977-3.48633,3.75977s-3.4873-1.56348-3.4873-3.75977ZM909.99245,364.75434h5.04785v34.39355h-5.04785v-34.39355Z"/><path class="cls-2" d="M921.78053,395.22309l2.49219-3.83301c2.58984,2.40527,5.22266,4.07422,8.80566,4.07422,3.91602,0,5.86133-2.40723,5.86133-5.34277,0-3.53906-3.52148-5.10352-6.82227-6.51855-4.18066-1.76074-8.89648-4.13281-8.89648-9.93457,0-5.50293,3.82324-9.76367,10.28906-9.76367,3.71387,0,6.96289,1.75391,9.27539,3.86523l-2.41406,3.72949c-2.05469-1.75098-4.16406-3.06152-6.80273-3.06152-3.75781,0-5.49316,2.30957-5.49316,4.93262,0,3.27051,3.24316,4.51465,6.62207,5.9668,4.30273,1.87012,9.09668,3.8877,9.09668,10.43457,0,5.57812-3.84375,10.22461-10.88379,10.22461-4.23828,0-8.32715-2.07031-11.12988-4.77344Z"/><path class="cls-2" d="M948.58522,381.99555c0-11.47656,6.72363-18.09082,14.35254-18.09082,3.91504,0,6.62793,1.8623,8.72754,4.03711l-2.58203,3.84863c-1.73828-1.81055-3.57324-3.04004-5.91992-3.04004-5.40137,0-9.3623,5.36328-9.3623,13.24512s3.74121,13.15625,9.22754,13.15625c2.72656,0,5.14258-1.52734,7.00391-3.42676l2.18848,3.89941c-2.68066,2.75586-6.06543,4.37207-9.64453,4.37207-7.93848,0-13.99121-6.61328-13.99121-18.00098Z"/><path class="cls-2" d="M978.78444,348.73969h5.04785v13.78809l-.18066,7.06836c2.78516-3.10645,5.80859-5.69141,9.9043-5.69141,6.28516,0,9.1084,4.67676,9.1084,13.4502v21.79297h-5.04785v-21.04102c0-6.40625-1.68066-9.14844-5.62891-9.14844-3.0498,0-5.16309,1.7959-8.15527,5.28223v24.90723h-5.04785v-50.4082Z"/><path class="cls-2" d="M1009.95338,381.99555c0-11.19336,6.54297-18.09082,13.41016-18.09082,7.6084,0,11.90527,6.30078,11.90527,16.13965,0,1.22754-.09082,2.45605-.23633,3.30566h-20.08887c.36133,7.28613,4.22461,12.00977,9.91113,12.00977,2.8623,0,5.21387-1.06543,7.42383-2.74805l1.80762,3.81836c-2.61621,1.97266-5.79395,3.56641-9.85059,3.56641-7.95215,0-14.28223-6.70215-14.28223-18.00098ZM1030.80788,379.1811c0-6.8916-2.68848-10.63867-7.35449-10.63867-4.19336,0-7.94141,3.88184-8.55566,10.63867h15.91016Z"/><path class="cls-2" d="M475.24098,413.86176h14.11133c9.66748,0,16.35352,3.15039,16.35352,11.15918,0,4.50195-2.50098,8.50684-6.94678,9.89551v.27734c5.68115,1.07422,9.66895,4.66992,9.66895,10.9043,0,8.95215-7.39502,13.33008-17.99365,13.33008h-15.19336v-45.56641ZM488.32985,433.25141c8.08496,0,11.43311-2.8584,11.43311-7.47852,0-5.32227-3.80615-7.31055-11.1582-7.31055h-7.31445v14.78906h7.03955ZM489.5652,454.82661c8.12988,0,12.91992-2.80664,12.91992-8.94727,0-5.61426-4.60693-8.18066-12.91992-8.18066h-8.2749v17.12793h8.2749Z"/><path class="cls-2" d="M516.18776,415.05317c0-2.24219,1.79883-3.68848,4.11523-3.68848,2.31689,0,4.11523,1.44629,4.11523,3.68848,0,2.15527-1.79834,3.68945-4.11523,3.68945-2.31641,0-4.11523-1.53418-4.11523-3.68945ZM517.27858,425.68012h5.95801v33.74805h-5.95801v-33.74805Z"/><path class="cls-2" d="M535.09694,452.64985v-42.68359h5.95801v43.10059c0,1.74609.79297,2.44043,1.66211,2.44043.34277,0,.63281,0,1.30371-.13965l.80762,4.36035c-.8457.29199-1.86621.5332-3.42871.5332-4.46582,0-6.30273-2.73145-6.30273-7.61133Z"/><path class="cls-2" d="M551.05983,442.59809c0-10.94727,7.20508-17.75195,15.23438-17.75195,4.09473,0,6.77832,1.47656,9.86719,3.91016l-.25195-5.78809v-13.00195h5.95801v49.46191h-4.92188l-.50293-3.9834h-.19824c-2.7373,2.62402-6.48828,4.81641-10.68262,4.81641-8.79883,0-14.50195-6.41602-14.50195-17.66309ZM575.90944,450.85005v-17.68848c-3.00488-2.56641-5.71191-3.50977-8.58789-3.50977-5.62891,0-10.10547,5.20605-10.10547,12.89453,0,8.0918,3.49316,12.90918,9.66309,12.90918,3.25684,0,6.0791-1.52051,9.03027-4.60547Z"/><path class="cls-2" d="M593.29909,447.06294v-21.38281h5.95801v20.64551c0,6.28613,1.9834,8.97656,6.64355,8.97656,3.59961,0,6.09375-1.70996,9.42676-5.6875v-23.93457h5.95801v33.74805h-4.92188l-.50293-5.28418h-.19824c-3.26367,3.68359-6.7793,6.11719-11.61328,6.11719-7.41797,0-10.75-4.58887-10.75-13.19824Z"/><path class="cls-2" d="M633.17702,425.68012h4.92188l.50293,4.86719h.19824c3.35547-3.16504,6.97754-5.70117,11.81152-5.70117,7.41797,0,10.75,4.58984,10.75,13.19824v21.38379h-5.95801v-20.64648c0-6.28613-1.9834-8.97656-6.64355-8.97656-3.59961,0-6.09375,1.76172-9.625,5.18359v24.43945h-5.95801v-33.74805Z"/><path class="cls-2" d="M670.1321,465.91059c0-2.88965,1.92188-5.6123,5.16211-7.62988v-.27734c-1.79199-1.07422-3.14844-2.87988-3.14844-5.53223,0-2.7998,2.05078-5.03516,3.87305-6.2627v-.27832c-2.33301-1.75391-4.55957-5.03516-4.55957-9.06152,0-7.38086,6.06836-12.02246,13.21191-12.02246,1.93652,0,3.69043.36621,4.9707.83398h12.28223v4.39648h-7.22949c1.66309,1.53516,2.86816,4.06445,2.86816,6.94434,0,7.22754-5.69434,11.70117-12.8916,11.70117-1.70801,0-3.65332-.40234-5.24609-1.14453-1.27441,1.01953-2.24316,2.13867-2.24316,3.98828,0,2.1416,1.44922,3.66211,6.16895,3.66211h6.85156c8.18457,0,12.30078,2.46289,12.30078,8.06055,0,6.26953-6.92188,11.66992-17.80078,11.66992-8.62402,0-14.57031-3.2373-14.57031-9.04785ZM696.66725,464.14301c0-3.12207-2.4707-4.18945-7.0957-4.18945h-6.0752c-1.34082,0-3.01172-.13867-4.5752-.50391-2.5166,1.70996-3.5918,3.7207-3.5918,5.6582,0,3.62598,3.8125,5.91406,10.21094,5.91406,6.71191,0,11.12695-3.35547,11.12695-6.87891ZM692.15358,436.8686c0-4.90527-3.33301-7.88086-7.48242-7.88086s-7.48242,2.93164-7.48242,7.88086c0,4.91211,3.4248,8.01855,7.48242,8.01855s7.48242-3.10645,7.48242-8.01855Z"/><path class="cls-2" d="M705.40553,455.57661l2.94141-3.76074c3.05762,2.36035,6.16406,3.99805,10.39355,3.99805,4.62207,0,6.91797-2.3623,6.91797-5.24219,0-3.47266-4.15625-5.00781-8.05273-6.39648-4.93359-1.72852-10.5-4.05566-10.5-9.74902,0-5.39941,4.5127-9.58008,12.14453-9.58008,4.38281,0,8.21777,1.7207,10.94727,3.79297l-2.84961,3.65918c-2.4248-1.71777-4.91406-3.00391-8.0293-3.00391-4.43555,0-6.4834,2.2666-6.4834,4.83984,0,3.20898,3.82812,4.42969,7.81641,5.85547,5.07812,1.83398,10.73633,3.81445,10.73633,10.23828,0,5.47363-4.53613,10.0332-12.8457,10.0332-5.00195,0-9.82812-2.03125-13.13672-4.68457Z"/><path class="cls-2" d="M735.86354,426.00825l5.04785-.32812h13.14844v4.65137h-18.19629v-4.32324ZM740.64479,420.34907c0-6.8584,3.25488-11.2168,10.31348-11.2168,2.1416,0,4.25293.51953,5.84668,1.16211l-1.25781,4.36035c-1.3418-.5918-2.7373-.87012-3.98828-.87012-3.32422,0-4.95605,2.22656-4.95605,6.58594v39.05762h-5.95801v-39.0791Z"/><path class="cls-2" d="M757.47389,442.59809c0-11.26172,7.68457-17.75195,16.31543-17.75195s16.31543,6.49023,16.31543,17.75195c0,11.17383-7.68457,17.66309-16.31543,17.66309s-16.31543-6.48926-16.31543-17.66309ZM783.9485,442.59809c0-7.73438-4.10352-12.99707-10.15918-12.99707s-10.15918,5.2627-10.15918,12.99707c0,7.7334,4.10352,12.90918,10.15918,12.90918s10.15918-5.17578,10.15918-12.90918Z"/><path class="cls-2" d="M799.34987,425.68012h4.92188l.50293,6.14551h.19824c2.45117-4.28223,6.0498-6.97949,10.01172-6.97949,1.55859,0,2.65234.19043,3.75781.69434l-1.1123,5.01074c-1.21191-.36621-2.00488-.55566-3.41504-.55566-2.97461,0-6.52734,2.05371-8.90723,7.7627v21.66992h-5.95801v-33.74805Z"/><path class="cls-2" d="M820.29128,455.57661l2.94141-3.76074c3.05762,2.36035,6.16406,3.99805,10.39355,3.99805,4.62207,0,6.91797-2.3623,6.91797-5.24219,0-3.47266-4.15625-5.00781-8.05273-6.39648-4.93359-1.72852-10.5-4.05566-10.5-9.74902,0-5.39941,4.5127-9.58008,12.14453-9.58008,4.38281,0,8.21777,1.7207,10.94727,3.79297l-2.84961,3.65918c-2.4248-1.71777-4.91406-3.00391-8.0293-3.00391-4.43555,0-6.4834,2.2666-6.4834,4.83984,0,3.20898,3.82812,4.42969,7.81641,5.85547,5.07812,1.83398,10.73633,3.81445,10.73633,10.23828,0,5.47363-4.53613,10.0332-12.8457,10.0332-5.00195,0-9.82812-2.03125-13.13672-4.68457Z"/><path class="cls-2" d="M851.9319,442.59809c0-11.26172,7.93652-17.75195,16.94043-17.75195,4.62012,0,7.82227,1.82812,10.2998,3.96191l-3.04785,3.77539c-2.05078-1.77637-4.2168-2.98242-6.98633-2.98242-6.375,0-11.0498,5.2627-11.0498,12.99707,0,7.7334,4.41504,12.90918,10.89062,12.90918,3.21777,0,6.07031-1.49902,8.2666-3.36328l2.58301,3.82715c-3.16406,2.7041-7.15918,4.29004-11.38281,4.29004-9.37012,0-16.51367-6.48926-16.51367-17.66309Z"/><path class="cls-2" d="M887.57838,409.96626h5.95801v13.52832l-.21289,6.93652c3.28711-3.04883,6.85547-5.58496,11.68945-5.58496,7.41797,0,10.75,4.58984,10.75,13.19824v21.38379h-5.95801v-20.64648c0-6.28613-1.9834-8.97656-6.64355-8.97656-3.59961,0-6.09375,1.76172-9.625,5.18359v24.43945h-5.95801v-49.46191Z"/><path class="cls-2" d="M926.51198,447.06294v-21.38281h5.95801v20.64551c0,6.28613,1.9834,8.97656,6.64355,8.97656,3.59961,0,6.09375-1.70996,9.42676-5.6875v-23.93457h5.95801v33.74805h-4.92188l-.50293-5.28418h-.19824c-3.26367,3.68359-6.7793,6.11719-11.61328,6.11719-7.41797,0-10.75-4.58887-10.75-13.19824Z"/><path class="cls-2" d="M966.39088,425.68012h4.92188l.50293,4.86719h.19824c3.35547-3.16504,6.97754-5.70117,11.81152-5.70117,7.41797,0,10.75,4.58984,10.75,13.19824v21.38379h-5.95801v-20.64648c0-6.28613-1.9834-8.97656-6.64355-8.97656-3.59961,0-6.09375,1.76172-9.625,5.18359v24.43945h-5.95801v-33.74805Z"/><path class="cls-2" d="M1003.34596,465.91059c0-2.88965,1.92188-5.6123,5.16211-7.62988v-.27734c-1.79199-1.07422-3.14844-2.87988-3.14844-5.53223,0-2.7998,2.05078-5.03516,3.87305-6.2627v-.27832c-2.33301-1.75391-4.55957-5.03516-4.55957-9.06152,0-7.38086,6.06836-12.02246,13.21191-12.02246,1.93652,0,3.69043.36621,4.9707.83398h12.28223v4.39648h-7.22949c1.66309,1.53516,2.86816,4.06445,2.86816,6.94434,0,7.22754-5.69434,11.70117-12.8916,11.70117-1.70801,0-3.65332-.40234-5.24609-1.14453-1.27441,1.01953-2.24316,2.13867-2.24316,3.98828,0,2.1416,1.44922,3.66211,6.16895,3.66211h6.85156c8.18457,0,12.30078,2.46289,12.30078,8.06055,0,6.26953-6.92188,11.66992-17.80078,11.66992-8.62402,0-14.57031-3.2373-14.57031-9.04785ZM1029.88112,464.14301c0-3.12207-2.4707-4.18945-7.0957-4.18945h-6.0752c-1.34082,0-3.01172-.13867-4.57422-.50391-2.51758,1.70996-3.59277,3.7207-3.59277,5.6582,0,3.62598,3.8125,5.91406,10.21094,5.91406,6.71191,0,11.12695-3.35547,11.12695-6.87891ZM1025.36745,436.8686c0-4.90527-3.33301-7.88086-7.48242-7.88086s-7.48242,2.93164-7.48242,7.88086c0,4.91211,3.4248,8.01855,7.48242,8.01855s7.48242-3.10645,7.48242-8.01855Z"/><path class="cls-1" d="M552.8528,152.23237l24.70801-1.96973h70.41895v34.69971h-95.12695v-32.72998ZM575.50124,131.01899c0-38.56348,16.06055-66.82324,55.86914-66.82324,12.2168,0,23.33496,3.18213,30.88477,6.51562l-7.5498,32.57861c-6.03906-2.87891-12.49121-4.39453-18.25684-4.39453-14.00098,0-21.41309,9.77344-21.41309,31.36572v206.0752h-39.53418v-205.31738Z"/><path class="cls-1" d="M474.62038,64.35151h39.80811v271.87451h-39.80811V64.35151Z"/><path class="cls-1" d="M699.39577,64.46137h135.07227v40.57373h-95.26465v69.67236h80.71387v40.57373h-80.71387v80.48096h98.69629v40.57422h-138.50391V64.46137Z"/><path class="cls-1" d="M871.44948,64.46235h71.79102c46.12207,0,80.02734,17.12695,80.02734,67.01221,0,25.60791-11.53027,50.55078-31.15918,58.86475v1.66309c24.84473,6.81738,43.10156,27.76904,43.10156,64.51758,0,54.375-36.78809,79.81641-86.2041,79.81641h-77.55664V64.46235ZM939.67213,176.70405c31.29688,0,44.61133-14.79932,44.61133-38.41162,0-26.27246-14.6875-36.24951-43.78809-36.24951h-29.23828v74.66113h28.41504ZM944.88796,298.7563c32.94434,0,51.33789-14.30078,51.33789-44.89648,0-28.60059-17.84473-41.07178-51.33789-41.07178h-33.63086v85.96826h33.63086Z"/></svg>